<svg xmlns="http://www.w3.org/2000/svg" xmlns:svg="http://www.w3.org/2000/svg" xmlns:xlink="http://www.w3.org/1999/xlink" id="svg2" width="512" height="512" version="1.1"><defs id="defs4"><linearGradient id="linearGradient4341"><stop style="stop-color:#18324c;stop-opacity:1" id="stop4343" offset="0"/><stop style="stop-color:#0b52a1;stop-opacity:1" id="stop4345" offset="1"/></linearGradient><linearGradient id="linearGradient4325"><stop id="stop4327" offset="0" style="stop-color:#fff;stop-opacity:0"/><stop id="stop4333" offset="1" style="stop-color:#fff;stop-opacity:1"/></linearGradient><linearGradient id="linearGradient4271"><stop style="stop-color:#0f3058;stop-opacity:1" id="stop4273" offset="0"/><stop id="stop4279" offset=".611" style="stop-color:#08a6f7;stop-opacity:1"/><stop style="stop-color:#00f5ff;stop-opacity:1" id="stop4281" offset=".769"/><stop style="stop-color:#07c8fa;stop-opacity:.0627451" id="stop4275" offset="1"/></linearGradient><linearGradient id="linearGradient4221"><stop style="stop-color:#89c0c8;stop-opacity:1" id="stop4223" offset="0"/><stop style="stop-color:#8eebf9;stop-opacity:1" id="stop4225" offset="1"/></linearGradient><linearGradient id="linearGradient4085"><stop style="stop-color:#2f8aaa;stop-opacity:1" id="stop4087" offset="0"/><stop style="stop-color:#2ca2cf;stop-opacity:0" id="stop4089" offset="1"/></linearGradient><linearGradient id="linearGradient4072"><stop style="stop-color:#559eaf;stop-opacity:1" id="stop4074" offset="0"/><stop style="stop-color:#559eaf;stop-opacity:0" id="stop4076" offset="1"/></linearGradient><linearGradient id="linearGradient4064"><stop style="stop-color:#33abc7;stop-opacity:1" id="stop4066" offset="0"/><stop style="stop-color:#33abc7;stop-opacity:0" id="stop4068" offset="1"/></linearGradient><linearGradient id="linearGradient4056"><stop style="stop-color:#5da5b6;stop-opacity:1" id="stop4058" offset="0"/><stop style="stop-color:#5da5b6;stop-opacity:0" id="stop4060" offset="1"/></linearGradient><linearGradient id="linearGradient4042"><stop id="stop4044" offset="0" style="stop-color:#fff;stop-opacity:0"/><stop style="stop-color:#fff;stop-opacity:.1254902" id="stop4048" offset=".241"/><stop id="stop4050" offset=".455" style="stop-color:#fff;stop-opacity:.25098041"/><stop id="stop4046" offset="1" style="stop-color:#fff;stop-opacity:0"/></linearGradient><linearGradient id="linearGradient4000"><stop style="stop-color:#32c0e1;stop-opacity:1" id="stop4002" offset="0"/><stop style="stop-color:#4d6986;stop-opacity:1" id="stop4004" offset="1"/></linearGradient><linearGradient id="linearGradient3942"><stop style="stop-color:#f6c31f;stop-opacity:1" id="stop3944" offset="0"/><stop style="stop-color:#fff;stop-opacity:0" id="stop3946" offset="1"/></linearGradient><linearGradient id="linearGradient3999"><stop id="stop4001" offset="0" style="stop-color:#4f5f6d;stop-opacity:1"/><stop style="stop-color:#5e93b6;stop-opacity:0" id="stop4005" offset="1"/></linearGradient><linearGradient id="linearGradient3889"><stop style="stop-color:#1a1a1a;stop-opacity:1" id="stop3891" offset="0"/><stop style="stop-color:#1a1a1a;stop-opacity:0" id="stop3893" offset="1"/></linearGradient><linearGradient id="linearGradient3881"><stop style="stop-color:#ff9300;stop-opacity:1" id="stop3883" offset="0"/><stop style="stop-color:#fff900;stop-opacity:1" id="stop3885" offset="1"/></linearGradient><linearGradient id="linearGradient3873"><stop style="stop-color:#33d8e3;stop-opacity:1" id="stop3875" offset="0"/><stop style="stop-color:#fff;stop-opacity:1" id="stop3877" offset="1"/></linearGradient><linearGradient id="linearGradient3865"><stop style="stop-color:#32c0e1;stop-opacity:1" id="stop3867" offset="0"/><stop style="stop-color:#4d6986;stop-opacity:1" id="stop3869" offset="1"/></linearGradient><linearGradient id="linearGradient3857"><stop style="stop-color:#0390b2;stop-opacity:1" id="stop3859" offset="0"/><stop style="stop-color:#00cfff;stop-opacity:1" id="stop3861" offset="1"/></linearGradient><filter id="filter3830" color-interpolation-filters="sRGB"><feGaussianBlur id="feGaussianBlur3832" stdDeviation="8.395"/></filter><filter id="filter3836" color-interpolation-filters="sRGB"><feGaussianBlur id="feGaussianBlur3838" stdDeviation="8.105"/></filter><filter id="filter3853" color-interpolation-filters="sRGB"><feGaussianBlur id="feGaussianBlur3855" stdDeviation="6.303"/></filter><linearGradient id="linearGradient3863" x1="991.968" x2="450.535" y1="69.278" y2="493.542" gradientUnits="userSpaceOnUse" xlink:href="#linearGradient3857"/><linearGradient id="linearGradient3871" x1="245.208" x2="495.424" y1="682.174" y2="423.575" gradientUnits="userSpaceOnUse" xlink:href="#linearGradient3865"/><linearGradient id="linearGradient3879" x1="180.602" x2="431.737" y1="511.975" y2="748.351" gradientTransform="matrix(1.1344074,0,0,1.1450049,-40.059317,-98.336929)" gradientUnits="userSpaceOnUse" xlink:href="#linearGradient3873"/><linearGradient id="linearGradient3887" x1="-63.129" x2="191.781" y1="385.993" y2="315.282" gradientTransform="matrix(1.2129644,-0.09737343,0.14235588,1.0593047,-86.156195,5.8361856)" gradientUnits="userSpaceOnUse" xlink:href="#linearGradient3881"/><radialGradient id="radialGradient3897" cx="220.213" cy="304.849" r="36.365" fx="220.213" fy="304.849" gradientUnits="userSpaceOnUse" xlink:href="#linearGradient3889"/><linearGradient id="linearGradient3925" x1="-63.129" x2="191.781" y1="385.993" y2="315.282" gradientTransform="matrix(1.2129644,-0.09737343,0.14235588,1.0593047,-86.156195,5.8361856)" gradientUnits="userSpaceOnUse" xlink:href="#linearGradient3881"/><linearGradient id="linearGradient3927" x1="245.208" x2="495.424" y1="682.174" y2="423.575" gradientUnits="userSpaceOnUse" xlink:href="#linearGradient3865"/><radialGradient id="radialGradient3929" cx="220.213" cy="304.849" r="36.365" fx="220.213" fy="304.849" gradientUnits="userSpaceOnUse" xlink:href="#linearGradient3889"/><linearGradient id="linearGradient3931" x1="180.602" x2="431.737" y1="511.975" y2="748.351" gradientTransform="matrix(1.1344074,0,0,1.1450049,-40.059317,-98.336929)" gradientUnits="userSpaceOnUse" xlink:href="#linearGradient3873"/><linearGradient id="linearGradient3933" x1="991.968" x2="450.535" y1="69.278" y2="493.542" gradientUnits="userSpaceOnUse" xlink:href="#linearGradient3857"/><linearGradient id="linearGradient3940" x1="991.968" x2="450.535" y1="69.278" y2="493.542" gradientUnits="userSpaceOnUse" xlink:href="#linearGradient3857"/><linearGradient id="linearGradient3943" x1="180.602" x2="431.737" y1="511.975" y2="748.351" gradientTransform="matrix(1.1342877,0.01648085,-0.01663481,1.1448841,-32.58043,-112.09591)" gradientUnits="userSpaceOnUse" xlink:href="#linearGradient3873"/><linearGradient id="linearGradient3947" x1="245.208" x2="495.424" y1="682.174" y2="423.575" gradientUnits="userSpaceOnUse" xlink:href="#linearGradient3865"/><linearGradient id="linearGradient3955" x1="-63.129" x2="191.781" y1="385.993" y2="315.282" gradientTransform="matrix(1.2129644,-0.09737343,0.14235588,1.0593047,-86.156195,5.8361856)" gradientUnits="userSpaceOnUse" xlink:href="#linearGradient3881"/><linearGradient id="linearGradient3947-0" x1="245.208" x2="495.424" y1="682.174" y2="423.575" gradientUnits="userSpaceOnUse" xlink:href="#linearGradient3865-3"/><linearGradient id="linearGradient3865-3"><stop style="stop-color:#4f5f6d;stop-opacity:1" id="stop3867-6" offset="0"/><stop style="stop-color:#63a3cc;stop-opacity:1" id="stop3869-9" offset="1"/></linearGradient><radialGradient id="radialGradient3997" cx="457.143" cy="1035.856" r="223.842" fx="457.143" fy="1035.856" gradientTransform="matrix(2.1151633,0.45839258,-0.22075322,1.0186226,-481.12043,-278.04938)" gradientUnits="userSpaceOnUse" xlink:href="#linearGradient3999"/><radialGradient id="radialGradient4030" cx="475.453" cy="1002.816" r="223.842" fx="475.453" fy="1002.816" gradientTransform="matrix(2.3000876,-0.66811794,0.41544069,1.4302122,-1101.4489,-279.75968)" gradientUnits="userSpaceOnUse" xlink:href="#linearGradient3999"/><linearGradient id="linearGradient3120" x1="522.825" x2="626.507" y1="226.01" y2="477.356" gradientTransform="matrix(0.38062854,-0.04358838,0.04358838,0.38062854,91.57658,656.85664)" gradientUnits="userSpaceOnUse" xlink:href="#linearGradient3857"/><radialGradient id="radialGradient3126" cx="475.453" cy="1002.816" r="223.842" fx="475.453" fy="1002.816" gradientTransform="matrix(0.84635681,-0.35456185,0.22046922,0.52627119,-339.60049,598.81873)" gradientUnits="userSpaceOnUse" xlink:href="#linearGradient3999"/><linearGradient id="linearGradient3130" x1="363.901" x2="495.424" y1="557.985" y2="423.575" gradientTransform="matrix(0.38062854,-0.04358838,0.04358838,0.38062854,91.57658,656.85664)" gradientUnits="userSpaceOnUse" xlink:href="#linearGradient3865"/><linearGradient id="linearGradient3138" x1="89.16" x2="95.755" y1="380.614" y2="327.19" gradientTransform="matrix(0.46168367,-0.06474447,0.07846346,0.40189736,66.609712,657.14966)" gradientUnits="userSpaceOnUse" xlink:href="#linearGradient3881"/><radialGradient id="radialGradient3126-5" cx="475.453" cy="1002.816" r="223.842" fx="475.453" fy="1002.816" gradientTransform="matrix(0.84635681,-0.35456185,0.22046922,0.52627119,-339.86058,598.38249)" gradientUnits="userSpaceOnUse" xlink:href="#linearGradient3999-9"/><linearGradient id="linearGradient3999-9"><stop id="stop4001-2" offset="0" style="stop-color:#4f5f6d;stop-opacity:1"/><stop style="stop-color:#5e93b6;stop-opacity:0" id="stop4005-1" offset="1"/></linearGradient><linearGradient id="linearGradient3948" x1="345.789" x2="379.646" y1="944.333" y2="884.31" gradientTransform="matrix(0.96592583,0.22886339,-0.25881905,0.85412979,220.38324,68.304578)" gradientUnits="userSpaceOnUse" xlink:href="#linearGradient3942"/><filter id="filter3970"><feGaussianBlur id="feGaussianBlur3972" stdDeviation="2.182"/></filter><filter id="filter3996" width="1.449" height="2.82" x="-.224" y="-.91"><feGaussianBlur id="feGaussianBlur3998" stdDeviation="27.577"/></filter><linearGradient id="linearGradient4006" x1="399.01" x2="399.01" y1="803.36" y2="853.867" gradientUnits="userSpaceOnUse" xlink:href="#linearGradient4000"/><linearGradient id="linearGradient4006-3" x1="399.01" x2="399.01" y1="803.36" y2="853.867" gradientUnits="userSpaceOnUse" xlink:href="#linearGradient4000-4"/><linearGradient id="linearGradient4000-4"><stop style="stop-color:#fff;stop-opacity:1" id="stop4002-1" offset="0"/><stop style="stop-color:#fff;stop-opacity:0" id="stop4004-9" offset="1"/></linearGradient><linearGradient id="linearGradient4062" x1="788.333" x2="771.711" y1="388.735" y2="437.301" gradientUnits="userSpaceOnUse" xlink:href="#linearGradient4056"/><linearGradient id="linearGradient4070" x1="443.565" x2="539.429" y1="227.158" y2="316.065" gradientUnits="userSpaceOnUse" xlink:href="#linearGradient4064"/><linearGradient id="linearGradient4078" x1="279.427" x2="531.108" y1="208.201" y2="296.816" gradientUnits="userSpaceOnUse" xlink:href="#linearGradient4072"/><linearGradient id="linearGradient4091" x1="317.724" x2="345.218" y1="193.684" y2="234.027" gradientUnits="userSpaceOnUse" xlink:href="#linearGradient4085"/><linearGradient id="linearGradient4091-8" x1="317.724" x2="345.218" y1="193.684" y2="234.027" gradientUnits="userSpaceOnUse" xlink:href="#linearGradient4085-1"/><linearGradient id="linearGradient4085-1"><stop style="stop-color:#fff;stop-opacity:1" id="stop4087-0" offset="0"/><stop style="stop-color:#fff;stop-opacity:0" id="stop4089-7" offset="1"/></linearGradient><linearGradient id="linearGradient4110" x1="323.716" x2="327.847" y1="177.452" y2="183.924" gradientTransform="translate(-1.999995,538.36218)" gradientUnits="userSpaceOnUse" xlink:href="#linearGradient4085-1"/><linearGradient id="linearGradient3120-7" x1="522.825" x2="626.507" y1="226.01" y2="477.356" gradientTransform="matrix(0.38062854,-0.04358838,0.04358838,0.38062854,91.57658,656.85664)" gradientUnits="userSpaceOnUse" xlink:href="#linearGradient3857-4"/><linearGradient id="linearGradient3857-4"><stop style="stop-color:#fff;stop-opacity:0" id="stop3859-8" offset="0"/><stop style="stop-color:#fff;stop-opacity:1" id="stop3861-3" offset="1"/></linearGradient><linearGradient id="linearGradient4146" x1="607.995" x2="621.747" y1="487.101" y2="504.41" gradientTransform="matrix(0.38062854,-0.04358838,0.04358838,0.38062854,91.576577,656.85664)" gradientUnits="userSpaceOnUse" xlink:href="#linearGradient3857-4"/><radialGradient id="radialGradient3126-6" cx="475.453" cy="1002.816" r="223.842" fx="475.453" fy="1002.816" gradientTransform="matrix(0.84635681,-0.35456185,0.22046922,0.52627119,-339.60049,598.81873)" gradientUnits="userSpaceOnUse" xlink:href="#linearGradient3999-3"/><linearGradient id="linearGradient3999-3"><stop id="stop4001-0" offset="0" style="stop-color:#4f5f6d;stop-opacity:1"/><stop style="stop-color:#5e93b6;stop-opacity:0" id="stop4005-0" offset="1"/></linearGradient><linearGradient id="linearGradient4227" x1="236.86" x2="208.727" y1="300.497" y2="330.738" gradientUnits="userSpaceOnUse" xlink:href="#linearGradient4221"/><radialGradient id="radialGradient4229" cx="386.709" cy="854.212" r="223.842" fx="386.709" fy="854.212" gradientTransform="matrix(0.91317667,0.01543185,-0.01268796,0.75080062,-170.20528,263.42729)" gradientUnits="userSpaceOnUse" xlink:href="#linearGradient3999-3"/><linearGradient id="linearGradient4227-8" x1="236.86" x2="208.727" y1="300.497" y2="330.738" gradientUnits="userSpaceOnUse" xlink:href="#linearGradient4221-1"/><linearGradient id="linearGradient4221-1"><stop style="stop-color:#fff;stop-opacity:0" id="stop4223-0" offset="0"/><stop style="stop-color:#fff;stop-opacity:1" id="stop4225-9" offset="1"/></linearGradient><linearGradient id="linearGradient4246" x1="221.375" x2="186.314" y1="327.8" y2="342.555" gradientTransform="translate(3e-6,540.36218)" gradientUnits="userSpaceOnUse" xlink:href="#linearGradient4221-1"/><radialGradient id="radialGradient4277" cx="190.756" cy="237.285" r="21.899" fx="190.756" fy="237.285" gradientTransform="matrix(1,0,0,0.74176627,0,61.274888)" gradientUnits="userSpaceOnUse" xlink:href="#linearGradient4271"/><radialGradient id="radialGradient4277-5" cx="190.756" cy="237.285" r="21.899" fx="190.756" fy="237.285" gradientTransform="matrix(1,0,0,0.74176627,0,61.274888)" gradientUnits="userSpaceOnUse" xlink:href="#linearGradient4271-5"/><linearGradient id="linearGradient4271-5"><stop style="stop-color:#0f3058;stop-opacity:1" id="stop4273-5" offset="0"/><stop id="stop4279-5" offset=".611" style="stop-color:#08a6f7;stop-opacity:1"/><stop style="stop-color:#00f5ff;stop-opacity:1" id="stop4281-5" offset=".769"/><stop style="stop-color:#07c8fa;stop-opacity:.0627451" id="stop4275-4" offset="1"/></linearGradient><linearGradient id="linearGradient4323" x1="207.578" x2="208.383" y1="246.7" y2="247.344" gradientUnits="userSpaceOnUse" xlink:href="#linearGradient4325"/><radialGradient id="radialGradient4347" cx="155.056" cy="218.799" r="14.466" fx="155.056" fy="218.799" gradientTransform="matrix(1,0,0,0.83098595,0,36.980113)" gradientUnits="userSpaceOnUse" xlink:href="#linearGradient4341"/><filter id="filter4361"><feGaussianBlur id="feGaussianBlur4363" stdDeviation=".662"/></filter><filter id="filter4365"><feGaussianBlur id="feGaussianBlur4367" stdDeviation=".132"/></filter><filter id="filter4377"><feGaussianBlur id="feGaussianBlur4379" stdDeviation=".397"/></filter><filter id="filter4393" width="2.2" height="2.2" x="-.6" y="-.6"><feGaussianBlur id="feGaussianBlur4395" stdDeviation=".936"/></filter><linearGradient id="linearGradient4442" x1="345.789" x2="379.646" y1="944.333" y2="884.31" gradientTransform="matrix(0.96592583,0.22886339,-0.25881905,0.85412979,220.38324,68.304578)" gradientUnits="userSpaceOnUse" xlink:href="#linearGradient3942"/><linearGradient id="linearGradient4444" x1="89.16" x2="95.755" y1="380.614" y2="327.19" gradientTransform="matrix(0.46168367,-0.06474447,0.07846346,0.40189736,66.609712,657.14966)" gradientUnits="userSpaceOnUse" xlink:href="#linearGradient3881"/><linearGradient id="linearGradient4446" x1="788.333" x2="771.711" y1="388.735" y2="437.301" gradientUnits="userSpaceOnUse" xlink:href="#linearGradient4056"/><linearGradient id="linearGradient4448" x1="399.01" x2="399.01" y1="803.36" y2="853.867" gradientUnits="userSpaceOnUse" xlink:href="#linearGradient4000"/><linearGradient id="linearGradient4450" x1="279.427" x2="531.108" y1="208.201" y2="296.816" gradientUnits="userSpaceOnUse" xlink:href="#linearGradient4072"/><linearGradient id="linearGradient4452" x1="443.565" x2="539.429" y1="227.158" y2="316.065" gradientUnits="userSpaceOnUse" xlink:href="#linearGradient4064"/><linearGradient id="linearGradient4454" x1="363.901" x2="495.424" y1="557.985" y2="423.575" gradientTransform="matrix(0.38062854,-0.04358838,0.04358838,0.38062854,91.57658,656.85664)" gradientUnits="userSpaceOnUse" xlink:href="#linearGradient3865"/><linearGradient id="linearGradient4456" x1="207.578" x2="208.383" y1="246.7" y2="247.344" gradientUnits="userSpaceOnUse" xlink:href="#linearGradient4325"/><radialGradient id="radialGradient4458" cx="475.453" cy="1002.816" r="223.842" fx="475.453" fy="1002.816" gradientTransform="matrix(0.84635681,-0.35456185,0.22046922,0.52627119,-339.60049,598.81873)" gradientUnits="userSpaceOnUse" xlink:href="#linearGradient3999"/><linearGradient id="linearGradient4460" x1="522.825" x2="626.507" y1="226.01" y2="477.356" gradientTransform="matrix(0.38062854,-0.04358838,0.04358838,0.38062854,91.57658,656.85664)" gradientUnits="userSpaceOnUse" xlink:href="#linearGradient3857"/><radialGradient id="radialGradient4462" cx="386.709" cy="854.212" r="223.842" fx="386.709" fy="854.212" gradientTransform="matrix(0.91317667,0.01543185,-0.01268796,0.75080062,-170.20528,263.42729)" gradientUnits="userSpaceOnUse" xlink:href="#linearGradient3999-3"/><linearGradient id="linearGradient4464" x1="323.716" x2="327.847" y1="177.452" y2="183.924" gradientTransform="translate(-1.999995,538.36218)" gradientUnits="userSpaceOnUse" xlink:href="#linearGradient4085-1"/><linearGradient id="linearGradient4466" x1="317.724" x2="345.218" y1="193.684" y2="234.027" gradientUnits="userSpaceOnUse" xlink:href="#linearGradient4085"/><linearGradient id="linearGradient4468" x1="607.995" x2="621.747" y1="487.101" y2="504.41" gradientTransform="matrix(0.38062854,-0.04358838,0.04358838,0.38062854,91.576577,656.85664)" gradientUnits="userSpaceOnUse" xlink:href="#linearGradient3857-4"/><linearGradient id="linearGradient4470" x1="236.86" x2="208.727" y1="300.497" y2="330.738" gradientUnits="userSpaceOnUse" xlink:href="#linearGradient4221"/><linearGradient id="linearGradient4472" x1="221.375" x2="186.314" y1="327.8" y2="342.555" gradientTransform="translate(3e-6,540.36218)" gradientUnits="userSpaceOnUse" xlink:href="#linearGradient4221-1"/><radialGradient id="radialGradient4474" cx="190.756" cy="237.285" r="21.899" fx="190.756" fy="237.285" gradientTransform="matrix(1,0,0,0.74176627,0,61.274888)" gradientUnits="userSpaceOnUse" xlink:href="#linearGradient4271"/><radialGradient id="radialGradient4476" cx="155.056" cy="218.799" r="14.466" fx="155.056" fy="218.799" gradientTransform="matrix(1,0,0,0.83098595,0,36.980113)" gradientUnits="userSpaceOnUse" xlink:href="#linearGradient4341"/></defs><metadata id="metadata7"/><g id="layer1" transform="translate(0,-540.36218)"><g id="g4415" transform="translate(-22.571257,-26.134279)"><path id="path2987-3-1" d="m 163.65122,786.12121 10.39818,15.33925 c -19.4612,50.84071 30.31928,107.92588 100.4358,126.67817 51.37314,12.08723 66.87808,45.66386 73.01598,61.67298 6.13788,16.00909 -20.56539,-130.71944 -48.42349,-195.18066 -16.20835,-37.50472 -59.59994,-55.14948 -93.85325,-54.62697 -23.28294,0.35516 -44.40191,17.84124 -42.0228,27.94722 1.61002,6.83903 0.6882,13.01632 0.44958,18.17001 z" style="opacity:.9;fill:url(#linearGradient4442);fill-opacity:1;stroke:none;filter:url(#filter3970)"/><path id="path3757" d="m 150.12927,774.61461 c -86.338067,34.18726 -109.42052,43.98721 -109.42052,43.98721 0,0 99.03666,-24.54492 115.16848,-18.69579 13.59503,4.92933 13.28306,-32.82713 -5.74796,-25.29142 z" style="fill:url(#linearGradient4444);fill-opacity:1;stroke:none"/><path transform="matrix(0.37712384,-0.06749547,0.06749547,0.37712384,83.591316,676.07097)" style="opacity:.3;fill:url(#linearGradient4446);fill-opacity:1;stroke:none;filter:url(#filter3853)" id="path3851" d="m 453.70345,324.86607 c -48.95209,140.2457 12.24212,243.38292 86.11065,234.37518 49.67011,-6.05693 78.36619,-16.86828 114.98827,-23.83275 l -28.69485,-15.42294 42.89867,12.98617 c 24.11284,-3.6161 52.66553,-5.33753 92.37704,-3.14996 l -56.16253,-33.96613 125.11894,38.39391 c 23.69767,0.37215 47.32975,-0.91315 69.71359,-3.12025 l -61.46284,-37.20524 103.76098,31.85624 c 55.38729,-8.50996 95.40573,-20.32618 95.40573,-20.32618 0,0 38.8249,19.21296 -129.97532,-71.08221 C 738.98153,344.07673 453.70345,324.86607 453.70345,324.86607 z"/><path id="path3840" d="m 280.65447,775.35286 c -12.51948,55.51526 15.26837,92.10487 42.9922,85.45646 18.64185,-4.47048 29.09315,-9.83641 42.72899,-14.08358 l -11.59434,-4.61965 16.8945,3.07302 c 9.02042,-2.42743 19.81335,-4.32722 35.02404,-5.22553 l -22.85759,-10.48044 49.29737,9.16008 c 9.03623,-0.89129 17.97525,-2.41059 26.39897,-4.22635 l -25.01622,-11.48231 40.88295,7.60262 c 20.71105,-5.65338 35.42817,-11.89531 35.42817,-11.89531 0,0 15.61532,5.62069 -52.57069,-21.3905 -68.18601,-27.0112 -177.60835,-21.88851 -177.60835,-21.88851 z" style="fill:url(#linearGradient4448);fill-opacity:1;stroke:none"/><path transform="matrix(0.38250282,-0.0216709,0.0216709,0.38250282,97.498262,646.68383)" style="opacity:.2;fill:url(#linearGradient4450);fill-opacity:1;stroke:none;filter:url(#filter3836)" id="path3834" d="M 621.40673,-23.28614 C 590.03294,-6.0126002 514.22269,46.971386 371.6544,205.40586 154.9842,446.18891 263.85055,633.98699 263.85055,633.98699 c 111.49607,45.81747 227.25401,-41.08475 246.76807,-134.03426 13.08549,-62.32889 -0.16547,-100.84168 1.36249,-140.02275 l -60.96666,41.26923 62.43501,-56.8968 c 2.45708,-15.87549 8.13332,-32.37323 19.64378,-51.05204 16.60263,-26.94225 20.91085,-45.20272 25.19327,-69.85074 l -66.81544,34.82728 72.33104,-66.36128 c 4.22925,-22.33912 10.74203,-50.71473 23.80068,-90.50446 l -60.78134,25.75994 70.92669,-55.125277 C 608.1364,43.120017 621.55699,9.1393768 639.16923,-31.35376 c 0,0 -5.48578,1.3084 -17.7625,8.06762 z"/><path transform="matrix(0.38062854,-0.04358838,0.04358838,0.38062854,91.57658,656.85664)" style="opacity:.3;fill:url(#linearGradient4452);fill-opacity:1;stroke:none;filter:url(#filter3830)" id="path3820" d="M 823.26702,-2.0444419 C 788.51743,6.6248251 701.67229,38.44334 523.30575,155.11629 c -271.07509,177.3154 -213.8946,386.72025 -213.8946,386.72025 96.05771,72.82533 230.20047,18.44133 272.85195,-66.41891 28.60069,-56.9045 25.64703,-97.5259 37.15117,-135.01118 l -69.49787,24.29259 74.91666,-39.02397 c 6.43805,-14.71801 16.1473,-29.21372 32.05465,-44.3248 22.94471,-21.79617 31.7826,-38.34601 42.23024,-61.07729 l -73.50328,16.56837 86.90525,-45.64072 c 9.80535,-20.51288 23.36302,-46.27683 46.16963,-81.3996 l -65.34965,9.3472 82.67221,-35.13829 c 17.4321,-25.255701 39.10196,-54.670211 66.49053,-89.3076339 0,0 -5.63794,-0.139074 -19.23562,3.253252 z"/><path id="path2987" d="m 155.30282,798.7937 14.5336,14.06466 c -3.91723,60.57301 60.87561,110.04614 134.09167,112.3828 53.16053,-0.0928 77.96488,32.57181 88.57942,48.47083 10.61454,15.89902 -58.12564,-137.46927 -103.902,-200.67358 -26.63354,-36.77344 -73.71113,-44.8172 -106.64436,-35.38103 -22.38564,6.41404 -37.66689,30.98103 -32.41087,41.40459 3.55691,7.05393 4.47457,14.04032 5.75254,19.73173 z" style="fill:url(#linearGradient4454);fill-opacity:1;stroke:none"/><path id="path4269-6" d="m 212.65517,237.28461 c 0,8.97146 -9.80472,16.24427 -21.89945,16.24427 -12.09473,0 -21.89945,-7.27281 -21.89945,-16.24427 0,-8.97147 9.80472,-16.24428 21.89945,-16.24428 12.09473,0 21.89945,7.27281 21.89945,16.24428 z" transform="matrix(0.9918455,0.12744605,-0.12744605,0.9918455,34.270503,516.2921)" style="fill:url(#linearGradient4456);fill-opacity:1;stroke:none"/><path id="path2987-3" d="m 155.30282,798.79371 14.5336,14.06465 c -3.91722,60.57302 60.87561,110.04615 134.09167,112.3828 53.16053,-0.0928 77.96488,32.57181 88.57942,48.47081 10.61454,15.89904 -58.12563,-137.46924 -103.902,-200.67356 -26.63353,-36.77343 -73.71113,-44.81719 -106.64435,-35.38102 -22.38564,6.41404 -37.6669,30.98103 -32.41088,41.40458 3.55691,7.05394 4.47457,14.04032 5.75254,19.73174 z" style="fill:url(#radialGradient4458);fill-opacity:1;stroke:none"/><path id="path3809" d="m 475.67709,634.11592 c -13.61094,1.73586 -48.0835,9.93678 -121.19255,46.30683 -111.10853,55.27392 -98.76912,137.51697 -98.76912,137.51697 33.2723,32.027 86.75477,17.36738 106.79807,-13.00141 13.44039,-20.36432 14.14317,-35.9523 20.20567,-49.69697 l -27.53406,6.11757 30.25814,-11.47874 c 3.11127,-5.31024 7.45714,-10.38882 14.18886,-15.42283 9.7098,-7.26104 13.81651,-13.16033 18.81362,-21.33908 l -28.71067,2.99864 35.11695,-13.45712 c 4.65299,-7.3636 10.96973,-16.55635 21.22623,-28.89395 l -25.28377,0.61785 33.03416,-9.65162 c 7.768,-8.82516 17.33533,-19.04206 29.31329,-30.98896 0,0 -2.1388,-0.30643 -7.46482,0.37282 z" style="fill:url(#linearGradient4460);fill-opacity:1;stroke:none"/><path id="path3907" d="m 63.639612,272.27188 c 0,0.13947 -0.452261,0.25254 -1.010153,0.25254 -0.557891,0 -1.010152,-0.11307 -1.010152,-0.25254 0,-0.13947 0.452261,-0.25254 1.010152,-0.25254 0.557892,0 1.010153,0.11307 1.010153,0.25254 z" transform="matrix(0.38062854,-0.04358838,0.04358838,0.38062854,91.57658,656.85664)" style="fill:#fff;fill-opacity:1;stroke:none"/><path id="path2987-3-8" d="m 155.30282,798.79372 14.5336,14.06465 c -3.91722,60.57302 60.87561,110.04615 134.09167,112.3828 53.16053,-0.093 77.96488,32.5718 88.57942,48.4708 10.61454,15.899 -58.12563,-137.46923 -103.902,-200.67355 -26.63353,-36.77343 -73.71113,-44.81719 -106.64435,-35.38102 -22.38564,6.41404 -37.6669,30.98103 -32.41088,41.40458 3.55691,7.05394 4.47457,14.04032 5.75254,19.73174 z" style="fill:url(#radialGradient4462);fill-opacity:1;stroke:none"/><path id="path3974" d="m 426.28436,425.12689 c 0,20.08411 -66.03006,36.36549 -147.48227,36.36549 -81.4522,0 -147.48227,-16.28138 -147.48227,-36.36549 0,-20.0841 66.03007,-36.36549 147.48227,-36.36549 81.45221,0 147.48227,16.28139 147.48227,36.36549 z" transform="matrix(0.81796383,0,0,0.41611057,53.985576,815.02248)" style="opacity:.3;fill:#000;fill-opacity:1;stroke:none;filter:url(#filter3996)"/><path id="path4080-7" d="m 465.0625,648.23718 c -45.99485,16.4028 -103.36447,40.08622 -141.43751,67.28125 -42.79665,29.26181 -30.05935,76.26395 -3.46875,83.5625 13.97177,6.15705 28.41968,5.62372 42.125,1.03125 11.7101,-18.98909 12.65918,-33.77461 18.4375,-46.875 l -27.53125,6.125 30.25,-11.46875 c 3.11127,-5.31024 7.45578,-10.40349 14.18751,-15.4375 9.7098,-7.26104 13.81539,-13.165 18.8125,-21.34375 l -28.68751,3 35.09376,-13.4375 c 4.65299,-7.3636 10.9935,-16.56865 21.25,-28.90625 l -25.3125,0.625 33.0625,-9.65625 c 3.92267,-4.45651 8.29969,-9.29013 13.21875,-14.5 z" style="fill:url(#linearGradient4464);stroke:none"/><path id="path4080" d="m 467.0625,109.875 c -45.99485,16.4028 -103.36446,40.08622 -141.4375,67.28125 -42.79665,29.26181 -30.05935,76.26395 -3.46875,83.5625 13.97177,6.15705 28.41968,5.62372 42.125,1.03125 11.7101,-18.98909 12.65918,-33.77461 18.4375,-46.875 L 355.1875,221 l 30.25,-11.46875 c 3.11127,-5.31024 7.45578,-10.40349 14.1875,-15.4375 9.7098,-7.26104 13.81539,-13.165 18.8125,-21.34375 l -28.6875,3 35.09375,-13.4375 c 4.65299,-7.3636 10.9935,-16.56865 21.25,-28.90625 l -25.3125,0.625 33.0625,-9.65625 c 3.92267,-4.45651 8.29969,-9.29013 13.21875,-14.5 z" transform="translate(0,540.36218)" style="fill:url(#linearGradient4466);stroke:none"/><path id="path3809-1" d="m 475.67709,634.11592 c -13.61094,1.73586 -48.0835,9.93678 -121.19255,46.30683 -111.10853,55.27392 -98.76912,137.51697 -98.76912,137.51697 33.2723,32.027 86.75477,17.36738 106.79807,-13.00141 13.44039,-20.36432 14.14317,-35.9523 20.20567,-49.69697 l -27.53406,6.11757 30.25814,-11.47874 c 3.11127,-5.31024 7.45714,-10.38882 14.18886,-15.42283 9.7098,-7.26104 13.81651,-13.16033 18.81362,-21.33908 l -28.71067,2.99864 35.11695,-13.45712 c 4.65299,-7.3636 10.96973,-16.55635 21.22623,-28.89395 l -25.28377,0.61785 33.03416,-9.65162 c 7.768,-8.82516 17.33533,-19.04206 29.31329,-30.98896 0,0 -2.1388,-0.30643 -7.46482,0.37282 z" style="fill:url(#linearGradient4468);fill-opacity:1;stroke:none"/><path id="path4216" d="m 169.625,272.3125 0.21875,0.1875 c -3.51071,54.28701 48.1557,99.64192 111.625,110.15625 -19.55731,-69.14369 -69.04524,-98.46464 -91.5625,-106.1875 -6.63894,-2.27699 -13.7075,-3.51756 -20.28125,-4.15625 z" transform="translate(0,540.36218)" style="fill:url(#linearGradient4470);fill-opacity:1;stroke:none"/><path id="path4216-4" d="m 169.625,812.67468 0.21875,0.1875 c -3.51071,54.28701 48.1557,99.64192 111.625,110.15625 -19.55731,-69.14369 -69.04524,-98.46464 -91.5625,-106.1875 -6.63894,-2.27699 -13.7075,-3.51756 -20.28125,-4.15625 z" style="fill:url(#linearGradient4472);fill-opacity:1;stroke:none"/><path id="path4269" d="m 212.65517,237.28461 c 0,8.97146 -9.80472,16.24427 -21.89945,16.24427 -12.09473,0 -21.89945,-7.27281 -21.89945,-16.24427 0,-8.97147 9.80472,-16.24428 21.89945,-16.24428 12.09473,0 21.89945,7.27281 21.89945,16.24428 z" transform="matrix(0.9918455,0.12744605,-0.12744605,0.9918455,34.270503,516.2921)" style="opacity:.2;fill:url(#radialGradient4474);fill-opacity:1;stroke:none"/><path id="path4335" d="m 169.52273,218.79904 c 0,6.63926 -6.47687,12.02145 -14.46649,12.02145 -7.98961,0 -14.46648,-5.38219 -14.46648,-12.02145 0,-6.63926 6.47687,-12.02144 14.46648,-12.02144 7.98962,0 14.46649,5.38218 14.46649,12.02144 z" transform="translate(37.694355,555.43993)" style="fill:#154868;fill-opacity:1;stroke:none;filter:url(#filter4361)"/><path style="fill:#00b2ff;fill-opacity:1;stroke:none;filter:url(#filter4365)" id="path4337" d="m 169.52273,218.79904 c 0,6.63926 -6.47687,12.02145 -14.46649,12.02145 -7.98961,0 -14.46648,-5.38219 -14.46648,-12.02145 0,-6.63926 6.47687,-12.02144 14.46648,-12.02144 7.98962,0 14.46649,5.38218 14.46649,12.02144 z" transform="matrix(0.90263448,0,0,0.90263448,52.791487,576.74341)"/><path id="path4339" d="m 169.52273,218.79904 c 0,6.63926 -6.47687,12.02145 -14.46649,12.02145 -7.98961,0 -14.46648,-5.38219 -14.46648,-12.02145 0,-6.63926 6.47687,-12.02144 14.46648,-12.02144 7.98962,0 14.46649,5.38218 14.46649,12.02144 z" transform="matrix(0.84536879,0,0,0.84536879,61.67089,589.27309)" style="fill:url(#radialGradient4476);fill-opacity:1;stroke:none;filter:url(#filter4377)"/><path id="path4381" d="m 195.39939,232.65427 c 0,2.13806 -2.69109,3.87131 -6.01072,3.87131 -3.31963,0 -6.01072,-1.73325 -6.01072,-3.87131 0,-2.13807 2.69109,-3.87132 6.01072,-3.87132 3.31963,0 6.01072,1.73325 6.01072,3.87132 z" transform="matrix(0.98956135,-0.14411222,0.14411222,0.98956135,-31.26321,568.9314)" style="opacity:.7;fill:#97f4f4;fill-opacity:1;stroke:none"/><path id="path4383" d="m 189.31497,232.06165 c 0,1.03441 -0.83857,1.87297 -1.87298,1.87297 -1.03442,0 -1.87298,-0.83856 -1.87298,-1.87297 0,-1.03442 0.83856,-1.87298 1.87298,-1.87298 1.03441,0 1.87298,0.83856 1.87298,1.87298 z" transform="translate(-1.0187664,540.56594)" style="fill:#fff;fill-opacity:1;stroke:none;filter:url(#filter4393)"/><path id="path4413" d="m 55.901225,273.41127 c 0,0 67.694795,-19.4338 80.682175,-22.7639 11.23788,-2.88151 15.84829,-4.03412 15.84829,-4.03412" transform="translate(0,540.36218)" style="fill:none;stroke:#ea981a;stroke-width:1px;stroke-linecap:butt;stroke-linejoin:miter;stroke-opacity:1"/></g></g></svg>